<svg width="700" height="640" viewBox="0 0 700 640" fill="none" xmlns="http://www.w3.org/2000/svg">
<path d="M686.923 477.589H0V477.933H686.923V477.589Z" fill="#EBEBEB"/>
<path d="M618.094 499.695H572.592V500.038H618.094V499.695Z" fill="#EBEBEB"/>
<path d="M455.046 503.432H443.107V503.775H455.046V503.432Z" fill="#EBEBEB"/>
<path d="M571.218 486.945H544.854V487.289H571.218V486.945Z" fill="#EBEBEB"/>
<path d="M131.408 489.253H72.0718V489.597H131.408V489.253Z" fill="#EBEBEB"/>
<path d="M152.346 489.253H143.65V489.597H152.346V489.253Z" fill="#EBEBEB"/>
<path d="M309.322 495.051H180.62V495.395H309.322V495.051Z" fill="#EBEBEB"/>
<path d="M325.602 416.316H60.3258C58.2476 416.312 56.2559 415.484 54.7877 414.014C53.3195 412.543 52.4949 410.55 52.4949 408.471V35.5683C52.513 33.5021 53.3455 31.5264 54.8118 30.0705C56.278 28.6145 58.2595 27.7959 60.3258 27.7924H325.602C327.682 27.7924 329.678 28.6188 331.149 30.09C332.62 31.5612 333.446 33.5565 333.446 35.637V408.471C333.446 410.552 332.62 412.547 331.149 414.018C329.678 415.49 327.682 416.316 325.602 416.316ZM60.3258 28.0671C58.3387 28.0708 56.4343 28.8627 55.0305 30.269C53.6267 31.6754 52.8383 33.5813 52.8383 35.5683V408.471C52.8383 410.458 53.6267 412.364 55.0305 413.771C56.4343 415.177 58.3387 415.969 60.3258 415.973H325.602C327.59 415.969 329.496 415.177 330.902 413.772C332.308 412.366 333.099 410.46 333.103 408.471V35.5683C333.099 33.58 332.308 31.6742 330.902 30.2682C329.496 28.8622 327.59 28.0708 325.602 28.0671H60.3258Z" fill="#EBEBEB"/>
<path d="M622.778 416.316H357.489C355.409 416.312 353.416 415.485 351.946 414.014C350.475 412.544 349.648 410.551 349.644 408.471V35.5683C349.666 33.5008 350.501 31.5252 351.97 30.0696C353.438 28.6141 355.421 27.7959 357.489 27.7924H622.778C624.842 27.7995 626.82 28.6198 628.284 30.0753C629.747 31.5309 630.578 33.5045 630.596 35.5683V408.471C630.596 410.547 629.773 412.538 628.308 414.009C626.842 415.479 624.854 416.309 622.778 416.316ZM357.489 28.0671C355.5 28.0708 353.595 28.8622 352.189 30.2682C350.783 31.6742 349.991 33.58 349.988 35.5683V408.471C349.991 410.46 350.783 412.366 352.189 413.772C353.595 415.177 355.5 415.969 357.489 415.973H622.778C624.767 415.969 626.673 415.177 628.079 413.772C629.484 412.366 630.276 410.46 630.28 408.471V35.5683C630.276 33.58 629.484 31.6742 628.079 30.2682C626.673 28.8622 624.767 28.0708 622.778 28.0671H357.489Z" fill="#EBEBEB"/>
<path d="M75.5338 477.576H112.889L112.889 378.054H75.5338L75.5338 477.576Z" fill="#E6E6E6"/>
<path d="M82.6233 477.59H75.5205V451.281H90.0558L82.6233 477.59Z" fill="#F0F0F0"/>
<path d="M288.645 477.576H326V378.054H288.645V477.576Z" fill="#E6E6E6"/>
<path d="M75.5342 470.404H294.841V378.054H75.5342V470.404Z" fill="#F0F0F0"/>
<path d="M287.739 477.59H294.841V451.281H280.306L287.739 477.59Z" fill="#F0F0F0"/>
<path d="M288.233 459.29H221.849V388.234H288.233V459.29ZM223.222 457.916H286.859V389.608H223.222V457.916Z" fill="#E6E6E6"/>
<path d="M218.441 459.29H151.989V388.234H218.441V459.29ZM153.431 457.916H217.068V389.608H153.362L153.431 457.916Z" fill="#E6E6E6"/>
<path d="M148.512 459.29H82.1282V388.234H148.512V459.29ZM83.502 457.916H147.139V389.608H83.502V457.916Z" fill="#E6E6E6"/>
<path d="M372.944 270.496H593.048V83.0897L372.944 83.0897V270.496Z" fill="#E6E6E6"/>
<path d="M367.998 270.496H590.891V83.0897L367.998 83.0897V270.496Z" fill="#F5F5F5"/>
<path d="M582.016 261.498V92.0748L376.901 92.0748V261.498H582.016Z" fill="#FAFAFA"/>
<path d="M556.834 261.497L476.107 92.0885H448.685L529.412 261.497H556.834Z" fill="white"/>
<path d="M521.636 261.497L440.908 92.0885H422.032L502.759 261.497H521.636Z" fill="white"/>
<path d="M453.053 261.511V92.0885H442.447V261.511H453.053Z" fill="#E6E6E6"/>
<path d="M523.559 261.511V92.0885H512.953V261.511H523.559Z" fill="#E6E6E6"/>
<path d="M451.13 267.212V85.3975H437.721V267.212H451.13Z" fill="#F5F5F5"/>
<path d="M521.635 267.212V85.3975H508.227V267.212H521.635Z" fill="#F5F5F5"/>
<path d="M377.835 261.511V92.0885H376.887V261.511H377.835Z" fill="#E6E6E6"/>
<path d="M364.261 71.522H602.72C603.024 71.5256 603.314 71.6488 603.527 71.8648C603.74 72.0808 603.86 72.3723 603.86 72.676C603.86 72.9784 603.74 73.2685 603.526 73.4823C603.312 73.6962 603.022 73.8163 602.72 73.8163H364.261C363.959 73.8163 363.669 73.6962 363.455 73.4823C363.241 73.2685 363.121 72.9784 363.121 72.676C363.121 72.3723 363.241 72.0808 363.454 71.8648C363.668 71.6488 363.958 71.5256 364.261 71.522Z" fill="#E6E6E6"/>
<path d="M593.049 79.0916C593.459 79.088 593.852 78.9233 594.142 78.6329C594.433 78.3425 594.597 77.9498 594.601 77.5391V74.2144C594.597 73.8051 594.432 73.4137 594.141 73.1256C593.851 72.8374 593.458 72.6757 593.049 72.6757C592.639 72.6757 592.246 72.8374 591.956 73.1256C591.665 73.4137 591.5 73.8051 591.496 74.2144V77.5391C591.5 77.9498 591.664 78.3425 591.955 78.6329C592.245 78.9233 592.638 79.088 593.049 79.0916Z" fill="#E6E6E6"/>
<path d="M381.558 79.0916C381.969 79.088 382.362 78.9233 382.652 78.6329C382.942 78.3425 383.107 77.9498 383.111 77.5391V74.2144C383.107 73.8051 382.942 73.4137 382.651 73.1256C382.36 72.8374 381.968 72.6757 381.558 72.6757C381.149 72.6757 380.756 72.8374 380.465 73.1256C380.175 73.4137 380.009 73.8051 380.006 74.2144V77.5391C380.009 77.9498 380.174 78.3425 380.465 78.6329C380.755 78.9233 381.148 79.088 381.558 79.0916Z" fill="#E6E6E6"/>
<path opacity="0.6" d="M364.619 165.685L587.36 165.685V72.6759L364.619 72.6759V165.685Z" fill="#E0E0E0"/>
<path d="M155.588 312.247H124.443C121.127 312.247 118.439 314.935 118.439 318.251V372.051C118.439 375.366 121.127 378.054 124.443 378.054H155.588C158.904 378.054 161.591 375.366 161.591 372.051V318.251C161.591 314.935 158.904 312.247 155.588 312.247Z" fill="#FAFAFA"/>
<path d="M159.572 307.37H120.459C119.343 307.37 118.439 308.274 118.439 309.389V311.011C118.439 312.126 119.343 313.03 120.459 313.03H159.572C160.687 313.03 161.591 312.126 161.591 311.011V309.389C161.591 308.274 160.687 307.37 159.572 307.37Z" fill="#E6E6E6"/>
<path d="M273.849 330.299H251.249C248.844 330.299 246.894 332.249 246.894 334.654V373.713C246.894 376.118 248.844 378.068 251.249 378.068H273.849C276.254 378.068 278.204 376.118 278.204 373.713V334.654C278.204 332.249 276.254 330.299 273.849 330.299Z" fill="#F0F0F0"/>
<path d="M276.747 326.755H248.35C247.546 326.755 246.894 327.407 246.894 328.211V329.406C246.894 330.211 247.546 330.863 248.35 330.863H276.747C277.552 330.863 278.204 330.211 278.204 329.406V328.211C278.204 327.407 277.552 326.755 276.747 326.755Z" fill="#E6E6E6"/>
<path d="M202.12 339.683H159.311C154.758 339.683 151.068 343.374 151.068 347.926V369.811C151.068 374.364 154.758 378.055 159.311 378.055H202.12C206.673 378.055 210.363 374.364 210.363 369.811V347.926C210.363 343.374 206.673 339.683 202.12 339.683Z" fill="#F0F0F0"/>
<path d="M207.602 332.978H153.829C152.304 332.978 151.068 334.215 151.068 335.74V337.993C151.068 339.518 152.304 340.754 153.829 340.754H207.602C209.127 340.754 210.363 339.518 210.363 337.993V335.74C210.363 334.215 209.127 332.978 207.602 332.978Z" fill="#F5F5F5"/>
<path d="M388.015 477.589H394.939V364.055H388.015V477.589Z" fill="#E6E6E6"/>
<path d="M587.951 341.95H550.458V364.041H587.951V341.95Z" fill="#E6E6E6"/>
<path d="M364.041 364.055H550.445V341.964H364.041V364.055Z" fill="#F5F5F5"/>
<path d="M587.951 400.956H550.458V423.048H587.951V400.956Z" fill="#E6E6E6"/>
<path d="M364.041 423.048H550.445V400.956H364.041V423.048Z" fill="#F5F5F5"/>
<path d="M574.419 477.589H581.343V364.055H574.419V477.589Z" fill="#E6E6E6"/>
<path d="M543.521 477.589H550.445V364.055H543.521V477.589Z" fill="#F5F5F5"/>
<path d="M364.042 477.589H370.966V364.055H364.042V477.589Z" fill="#F5F5F5"/>
<path d="M95.7299 191.335H183.848V92.5146L95.7299 92.5146L95.7299 191.335Z" fill="#F0F0F0"/>
<path d="M89.506 191.335H182.474V92.5146L89.506 92.5146L89.506 191.335Z" fill="#F5F5F5"/>
<path d="M97.2961 100.29V183.545H174.685V100.29H97.2961Z" fill="white"/>
<path d="M123.165 117.917C119.568 117.894 116.074 119.121 113.281 121.388C110.489 123.655 108.57 126.821 107.853 130.347C107.136 133.872 107.665 137.536 109.35 140.714C111.036 143.892 113.772 146.386 117.093 147.77L174.698 172.046V138.277L129.141 119.112C127.248 118.324 125.217 117.917 123.165 117.917Z" fill="#F0F0F0"/>
<path d="M212.754 240.738H300.873V141.918H212.754V240.738Z" fill="#F0F0F0"/>
<path d="M206.53 240.738H299.498V141.918H206.53V240.738Z" fill="#F5F5F5"/>
<path d="M214.32 149.694V232.949H291.709V149.694H214.32Z" fill="white"/>
<path d="M261.731 181.897L214.32 161.949V196.473L249.38 211.215C253.268 212.855 257.648 212.883 261.557 211.293C265.465 209.703 268.582 206.626 270.222 202.738C271.861 198.85 271.889 194.471 270.3 190.562C268.71 186.654 265.633 183.537 261.745 181.897H261.731Z" fill="#F0F0F0"/>
<path d="M343.461 539.633C490.576 539.633 609.836 532.67 609.836 524.081C609.836 515.492 490.576 508.529 343.461 508.529C196.347 508.529 77.0864 515.492 77.0864 524.081C77.0864 532.67 196.347 539.633 343.461 539.633Z" fill="#F5F5F5"/>
<path d="M266.622 111.885C267.996 106.101 282.366 100.606 294.731 109.138C300.212 112.849 304.323 118.257 306.433 124.532C308.542 130.806 308.534 137.599 306.409 143.868C299.773 163.514 334.408 162.786 342.431 195.91C348.764 222.013 342.898 258.983 307.549 256.977C253.598 253.914 258.255 201.185 255.892 173.475C253.529 145.764 224.088 114.688 266.622 111.885Z" fill="#263238"/>
<path d="M248.803 185.867C248.57 189.879 248.102 193.547 247.58 197.353C247.058 201.158 246.33 204.881 245.52 208.618C244.709 212.355 243.789 216.092 242.621 219.774C241.493 223.51 240.153 227.18 238.609 230.764L237.4 233.512C237.222 233.911 236.892 234.515 236.645 235.023C236.397 235.532 236.068 235.999 235.779 236.493C234.649 238.255 233.391 239.931 232.015 241.508C229.455 244.438 226.701 247.191 223.772 249.751C218.092 254.771 212.049 259.363 205.692 263.489L202.037 258.599C204.62 256.098 207.258 253.515 209.8 250.933C212.341 248.35 214.855 245.726 217.246 243.06C219.601 240.476 221.825 237.776 223.909 234.968C224.861 233.654 225.724 232.277 226.492 230.847C226.643 230.531 226.835 230.201 226.959 229.899C227.083 229.597 227.22 229.349 227.371 228.896L228.305 226.478C230.663 219.839 232.5 213.028 233.801 206.104C234.501 202.614 235.01 199.07 235.532 195.539C236.054 192.008 236.452 188.368 236.754 185.015L248.803 185.867Z" fill="#FFB573"/>
<path d="M240.56 171.442C235.683 172.678 232.317 192.764 232.317 192.764L250.988 205.458C250.988 205.458 258.667 181.65 254.903 176.278C250.946 170.672 247.677 169.628 240.56 171.442Z" fill="#072AC8"/>
<path opacity="0.2" d="M241 175.921L237.25 196.171L244.806 201.296L241 175.921Z" fill="black"/>
<path d="M204.263 256.923L191.692 258.928L198.864 266.869C198.864 266.869 206.269 265.179 207.574 260.44L204.263 256.923Z" fill="#FFB573"/>
<path d="M185.744 260.508L192.915 268.271L198.864 266.869L191.692 258.928L185.744 260.508Z" fill="#FFB573"/>
<path d="M266.966 509.463H255.123L254.326 482.041H266.169L266.966 509.463Z" fill="#FFB573"/>
<path d="M348.847 474.567L337.884 479.046L323.994 455.1L334.957 450.621L348.847 474.567Z" fill="#FFB573"/>
<path d="M335.822 477.398L347.253 470.611C347.449 470.489 347.682 470.442 347.91 470.48C348.138 470.518 348.344 470.638 348.489 470.817L355.166 479.06C355.32 479.274 355.428 479.517 355.482 479.775C355.537 480.033 355.539 480.299 355.486 480.557C355.433 480.815 355.327 481.059 355.175 481.275C355.023 481.49 354.828 481.671 354.603 481.808C350.578 484.102 348.517 485.009 343.489 488.004C340.397 489.845 333.116 496.137 328.843 498.678C324.571 501.22 321.837 497.126 323.348 495.684C328.386 491.13 332.203 485.386 334.449 478.978C334.715 478.311 335.199 477.754 335.822 477.398Z" fill="#263238"/>
<path d="M254.711 508.103H268.024C268.25 508.097 268.471 508.176 268.643 508.323C268.816 508.47 268.928 508.675 268.958 508.9L270.483 519.437C270.51 519.702 270.481 519.97 270.398 520.224C270.315 520.477 270.18 520.71 270.001 520.908C269.822 521.106 269.604 521.265 269.361 521.373C269.117 521.482 268.854 521.538 268.587 521.539C263.943 521.457 261.718 521.182 255.852 521.182C252.252 521.182 244.861 521.553 239.846 521.553C234.832 521.553 234.612 516.648 236.673 516.195C245.96 514.203 249.614 511.455 252.733 508.831C253.285 508.362 253.986 508.104 254.711 508.103Z" fill="#263238"/>
<g opacity="0.2">
<path d="M254.34 482.055L254.738 496.191H266.581L266.183 482.055H254.34Z" fill="black"/>
<path d="M334.971 450.621L323.994 455.1L331.166 467.451L342.129 462.972L334.971 450.621Z" fill="black"/>
</g>
<path d="M240.56 171.442C240.56 171.442 234.914 173.42 246.221 242.882H294.305C293.495 223.305 293.481 211.284 302.837 171.071C296.103 169.659 289.275 168.741 282.408 168.323C275.14 167.801 267.845 167.801 260.577 168.323C251.194 169.299 240.56 171.442 240.56 171.442Z" fill="#072AC8"/>
<path opacity="0.2" d="M298.866 186.994C294.511 188.079 290.486 192.833 290.967 201.584C291.238 205.553 292.629 209.365 294.979 212.575C295.748 205.843 297.039 198.026 299.1 188.024L298.866 186.994Z" fill="black"/>
<path d="M263.105 187.612C263.105 187.612 269.356 191.472 270.991 197.229C277.778 192.256 286.996 178.421 287.367 170.137C287.369 169.896 287.323 169.656 287.232 169.433C287.141 169.21 287.007 169.007 286.837 168.836C286.667 168.665 286.465 168.529 286.242 168.436C286.02 168.343 285.781 168.296 285.54 168.296C284.494 168.269 283.447 168.315 282.408 168.433L263.105 187.612Z" fill="#FAFAFA"/>
<path d="M263.105 187.612C263.105 187.612 256.854 191.473 255.219 197.229C247.924 191.885 251.977 174.245 256.153 168.378C257.624 168.223 259.107 168.223 260.577 168.378L263.105 187.612Z" fill="#FAFAFA"/>
<path d="M280.264 143.814C278.89 150.834 277.517 163.707 282.421 168.406C277.865 176.46 271.189 183.112 263.119 187.64C253.378 179.864 260.591 168.406 260.591 168.406C268.422 166.537 268.216 160.712 266.856 155.258L280.264 143.814Z" fill="#FFB573"/>
<path opacity="0.2" d="M274.769 148.485L266.828 155.258C267.171 156.526 267.396 157.823 267.501 159.132C270.496 158.692 275.209 156.151 275.854 152.895C276.143 151.356 275.044 149.213 274.769 148.485Z" fill="black"/>
<path d="M292.025 132.521C288.782 143.814 287.642 148.663 280.553 153.266C269.892 160.135 256.731 153.705 256.538 141.67C256.36 130.831 261.704 114.193 273.931 112.119C276.624 111.649 279.391 111.875 281.972 112.777C284.552 113.679 286.858 115.225 288.672 117.27C290.485 119.315 291.745 121.79 292.332 124.459C292.919 127.129 292.813 129.904 292.025 132.521Z" fill="#FFB573"/>
<path d="M267.639 113.122C268.174 116.941 289.084 129.223 293.055 122.821C297.025 116.419 291.31 111.597 282.408 110.374C277.315 109.575 272.103 110.545 267.639 113.122Z" fill="#263238"/>
<path d="M281.267 115.197C278.698 118.576 284.139 142.921 291.928 140.627C299.718 138.332 299.361 130.543 293.948 123.357C290.885 119.153 286.363 116.243 281.267 115.197Z" fill="#263238"/>
<path d="M246.221 242.909C246.221 242.909 236.879 334.16 237.675 370.223C238.486 407.784 252.252 493.457 252.252 493.457H268.257C268.257 493.457 265.729 409.982 267.144 373.095C268.683 332.882 281.46 242.909 281.46 242.909H246.221Z" fill="#072AC8"/>
<path opacity="0.4" d="M246.221 242.909C246.221 242.909 236.879 334.16 237.675 370.223C238.486 407.784 252.252 493.457 252.252 493.457H268.257C268.257 493.457 265.729 409.982 267.144 373.095C268.683 332.882 281.46 242.909 281.46 242.909H246.221Z" fill="black"/>
<path d="M269.617 494.021H250.837L249.463 488.031L270.496 487.303L269.617 494.021Z" fill="#263238"/>
<path opacity="0.2" d="M266.966 265.605C255.151 289.359 264.589 332.704 268.765 348.832C270.909 324.612 274.522 295.005 277.338 273.271C275.538 260.961 272.406 254.642 266.966 265.605Z" fill="black"/>
<path d="M258.915 242.909C258.915 242.909 269.81 337.705 278.039 368.177C287.807 404.323 327.498 465.994 327.498 465.994L342.445 459.895C342.445 459.895 316.823 389.677 309.349 370.595C293.413 329.942 307.055 269.383 294.319 242.827L258.915 242.909Z" fill="#072AC8"/>
<path opacity="0.4" d="M258.915 242.909C258.915 242.909 269.81 337.705 278.039 368.177C287.807 404.323 327.498 465.994 327.498 465.994L342.445 459.895C342.445 459.895 316.823 389.677 309.349 370.595C293.413 329.942 307.055 269.383 294.319 242.827L258.915 242.909Z" fill="black"/>
<path d="M344.478 459.963L325.931 467.533L321.576 462.519L342.994 452.627L344.478 459.963Z" fill="#263238"/>
<path d="M125.858 122.258C113.894 132.847 105.338 146.746 101.273 162.198C97.2078 177.649 97.816 193.959 103.021 209.065C108.225 224.171 117.792 237.394 130.512 247.063C143.232 256.732 158.533 262.411 174.481 263.383C190.429 264.355 206.307 260.577 220.107 252.525C233.907 244.473 245.01 232.51 252.011 218.148C259.012 203.786 261.597 187.671 259.439 171.84C257.281 156.009 250.477 141.174 239.887 129.21C225.686 113.17 205.695 103.428 184.312 102.124C162.929 100.82 141.903 108.063 125.858 122.258ZM224.459 233.677C214.388 242.588 201.9 248.312 188.576 250.126C175.251 251.94 161.688 249.762 149.601 243.867C137.515 237.972 127.448 228.626 120.673 217.01C113.898 205.394 110.72 192.03 111.54 178.607C112.36 165.185 117.143 152.307 125.282 141.603C133.421 130.898 144.551 122.848 157.266 118.469C169.981 114.091 183.708 113.58 196.712 117.004C209.717 120.427 221.414 127.629 230.325 137.7C236.242 144.387 240.784 152.174 243.691 160.617C246.599 169.059 247.815 177.991 247.27 186.904C246.725 195.816 244.43 204.534 240.516 212.559C236.603 220.584 231.146 227.76 224.459 233.677Z" fill="#263238"/>
<path opacity="0.3" d="M175.605 244.956C163.299 244.216 151.49 239.842 141.67 232.389C131.851 224.935 124.463 214.737 120.44 203.083C116.418 191.43 115.943 178.846 119.074 166.922C122.205 154.999 128.802 144.272 138.031 136.099C147.26 127.925 158.706 122.673 170.92 121.006C183.135 119.339 195.57 121.332 206.651 126.733C217.733 132.134 226.963 140.701 233.175 151.349C239.387 161.997 242.302 174.249 241.549 186.554C240.538 203.039 233.025 218.449 220.66 229.399C208.296 240.349 192.091 245.944 175.605 244.956Z" fill="#072AC8"/>
<g opacity="0.5">
<path d="M183.188 120.555H182.021L117.285 177.844L117.203 179.012C116.363 192.52 119.962 205.932 127.452 217.205L219.815 135.365C209.545 126.57 196.685 121.37 183.188 120.555Z" fill="#FAFAFA"/>
<path d="M225.846 141.217L132.521 223.799C135.638 227.398 139.16 230.625 143.017 233.416L234.048 152.813C231.765 148.648 229.013 144.757 225.846 141.217Z" fill="#FAFAFA"/>
</g>
<path d="M242.965 243.857L232.331 253.268C231.558 253.951 230.545 254.299 229.515 254.237C228.485 254.176 227.522 253.708 226.836 252.938C226.16 252.162 225.816 251.151 225.877 250.123C225.939 249.095 226.401 248.133 227.165 247.443L237.799 238.032C238.574 237.351 239.588 237.005 240.618 237.069C241.647 237.133 242.61 237.603 243.294 238.375C243.976 239.147 244.325 240.157 244.263 241.184C244.201 242.212 243.734 243.173 242.965 243.857Z" fill="#263238"/>
<path d="M239.049 242.113C247.059 249.16 254.725 256.524 262.295 263.984C269.865 271.444 277.256 279.097 284.565 286.708C291.874 294.319 299.045 302.177 306.162 310.063C312.839 318.306 321.933 324.406 323.294 337.348C323.4 338.383 323.259 339.428 322.881 340.398C322.503 341.367 321.9 342.233 321.121 342.923C320.342 343.613 319.411 344.108 318.403 344.366C317.395 344.625 316.34 344.639 315.325 344.409C302.631 341.483 297.699 331.715 290.335 324.076C283.392 316.062 276.551 307.975 269.81 299.814C263.069 291.654 256.451 283.36 249.958 274.934C243.473 266.526 237.098 258.022 231.067 249.215C230.293 248.137 229.946 246.81 230.092 245.491C230.239 244.171 230.869 242.953 231.86 242.07C232.852 241.188 234.135 240.704 235.463 240.712C236.79 240.719 238.068 241.219 239.049 242.113Z" fill="#263238"/>
<path d="M273.093 131.504C272.887 132.438 272.228 133.084 271.609 132.878C270.991 132.672 270.675 131.875 270.881 130.955C271.087 130.034 271.747 129.375 272.365 129.581C272.983 129.787 273.299 130.57 273.093 131.504Z" fill="#263238"/>
<path d="M262.555 129.168C262.349 130.103 261.676 130.748 261.071 130.611C260.467 130.473 260.137 129.608 260.343 128.674C260.549 127.74 261.209 127.094 261.827 127.231C262.445 127.369 262.761 128.234 262.555 129.168Z" fill="#263238"/>
<path d="M262.089 127.342L259.987 126.201C259.987 126.201 260.742 128.207 262.089 127.342Z" fill="#263238"/>
<path d="M265.427 131.573C264.124 133.512 262.561 135.264 260.783 136.779C261.183 137.226 261.675 137.581 262.225 137.818C262.776 138.056 263.371 138.17 263.971 138.153L265.427 131.573Z" fill="#ED893E"/>
<path d="M268.243 142.921C267.781 142.888 267.321 142.819 266.869 142.715C266.834 142.707 266.801 142.692 266.772 142.671C266.742 142.65 266.717 142.623 266.698 142.592C266.679 142.562 266.666 142.528 266.66 142.492C266.654 142.457 266.655 142.42 266.663 142.385C266.671 142.35 266.686 142.316 266.707 142.287C266.728 142.258 266.755 142.233 266.785 142.214C266.816 142.194 266.85 142.182 266.886 142.176C266.921 142.17 266.958 142.171 266.993 142.179C268.148 142.459 269.352 142.465 270.509 142.195C271.666 141.925 272.744 141.388 273.656 140.626C273.679 140.59 273.71 140.559 273.747 140.537C273.784 140.514 273.825 140.499 273.868 140.495C273.911 140.49 273.954 140.495 273.995 140.509C274.036 140.524 274.073 140.547 274.103 140.578C274.134 140.608 274.157 140.645 274.172 140.686C274.186 140.727 274.191 140.77 274.186 140.813C274.181 140.856 274.167 140.897 274.144 140.934C274.122 140.97 274.091 141.002 274.055 141.025C273.26 141.71 272.337 142.23 271.339 142.555C270.341 142.881 269.289 143.005 268.243 142.921Z" fill="#263238"/>
<path d="M292.78 143.786C292.147 144.721 291.335 145.521 290.392 146.141C289.449 146.761 288.393 147.189 287.284 147.4C284.317 147.949 283.163 145.229 284.166 142.577C285.1 140.187 287.793 137.082 290.65 137.686C291.273 137.841 291.846 138.148 292.32 138.58C292.794 139.012 293.153 139.555 293.364 140.161C293.576 140.766 293.633 141.414 293.531 142.047C293.429 142.68 293.171 143.278 292.78 143.786Z" fill="#FFB573"/>
<path d="M277.517 127.396C277.405 127.43 277.286 127.428 277.175 127.391C277.064 127.355 276.968 127.284 276.899 127.19C275.374 125.088 272.022 125.115 271.994 125.115C271.845 125.115 271.701 125.056 271.596 124.95C271.49 124.845 271.431 124.702 271.431 124.552C271.429 124.479 271.442 124.406 271.469 124.338C271.495 124.269 271.536 124.207 271.587 124.155C271.638 124.102 271.699 124.06 271.767 124.032C271.834 124.004 271.907 123.989 271.98 123.989C272.145 123.989 275.937 123.989 277.805 126.531C277.892 126.651 277.928 126.801 277.905 126.947C277.882 127.094 277.801 127.226 277.682 127.314L277.517 127.396Z" fill="#263238"/>
<path d="M260.357 121.448C260.26 121.441 260.167 121.41 260.085 121.357C260.003 121.304 259.936 121.231 259.89 121.146C259.823 121.012 259.811 120.858 259.858 120.717C259.904 120.575 260.005 120.458 260.137 120.39C260.923 119.969 261.797 119.74 262.688 119.724C263.579 119.707 264.461 119.902 265.262 120.294C265.389 120.371 265.481 120.494 265.519 120.637C265.557 120.78 265.539 120.933 265.468 121.063C265.393 121.192 265.27 121.287 265.126 121.325C264.982 121.364 264.828 121.344 264.699 121.269C264.061 120.968 263.362 120.823 262.657 120.844C261.953 120.866 261.264 121.054 260.646 121.393C260.554 121.431 260.456 121.45 260.357 121.448Z" fill="#263238"/>
<path d="M331.276 481.89H331.097C330.831 481.829 330.586 481.701 330.384 481.518C330.182 481.335 330.03 481.104 329.943 480.845C329.866 480.694 329.832 480.525 329.844 480.355C329.856 480.186 329.914 480.023 330.012 479.884C330.877 478.647 335.164 478.798 335.644 478.826C335.7 478.824 335.754 478.84 335.799 478.873C335.844 478.905 335.876 478.951 335.892 479.005C335.91 479.056 335.914 479.112 335.901 479.166C335.889 479.219 335.862 479.268 335.823 479.307C334.765 480.351 332.746 482.068 331.276 481.89ZM334.985 479.348C333.268 479.348 330.973 479.54 330.52 480.186C330.483 480.251 330.463 480.324 330.463 480.399C330.463 480.474 330.483 480.547 330.52 480.612C330.576 480.785 330.675 480.941 330.807 481.066C330.939 481.19 331.1 481.28 331.276 481.326C332.059 481.505 333.419 480.749 334.985 479.348Z" fill="#072AC8"/>
<path d="M335.218 479.348C333.748 479.17 331.097 478.167 330.74 477.013C330.666 476.802 330.667 476.573 330.742 476.363C330.817 476.153 330.962 475.975 331.152 475.859C331.32 475.725 331.515 475.63 331.724 475.58C331.933 475.53 332.15 475.527 332.361 475.57C334.051 475.9 335.809 478.826 335.892 478.95C335.912 478.993 335.923 479.04 335.923 479.087C335.923 479.135 335.912 479.182 335.892 479.225C335.866 479.267 335.829 479.302 335.786 479.326C335.743 479.35 335.694 479.362 335.644 479.362C335.502 479.371 335.36 479.366 335.218 479.348ZM332.182 476.106C331.937 476.078 331.69 476.147 331.495 476.298C331.207 476.518 331.221 476.697 331.275 476.82C331.55 477.603 333.68 478.579 335.108 478.771C334.477 477.823 333.268 476.312 332.265 476.12L332.182 476.106Z" fill="#072AC8"/>
<path d="M250.273 510.164C249.261 510.259 248.247 510.002 247.402 509.436C247.21 509.267 247.063 509.053 246.974 508.813C246.885 508.573 246.858 508.315 246.894 508.062C246.9 507.908 246.946 507.759 247.028 507.629C247.11 507.498 247.225 507.392 247.361 507.32C248.817 506.509 253.543 508.927 254.065 509.202C254.117 509.229 254.159 509.271 254.185 509.323C254.212 509.374 254.223 509.433 254.216 509.491C254.211 509.548 254.186 509.603 254.147 509.645C254.107 509.687 254.054 509.715 253.997 509.724C252.773 509.99 251.526 510.137 250.273 510.164ZM248.158 507.718C247.979 507.708 247.799 507.741 247.636 507.814C247.582 507.845 247.536 507.889 247.502 507.942C247.469 507.995 247.449 508.055 247.443 508.117C247.423 508.283 247.442 508.452 247.499 508.61C247.556 508.768 247.65 508.909 247.773 509.023C248.488 509.669 250.438 509.779 253.062 509.339C251.53 508.527 249.872 507.979 248.158 507.718Z" fill="#072AC8"/>
<path d="M253.941 509.751H253.831C252.458 509.119 249.627 506.564 249.847 505.218C249.847 504.902 250.122 504.503 250.891 504.421C251.17 504.391 251.452 504.42 251.72 504.505C251.987 504.59 252.234 504.73 252.444 504.916C253.941 506.152 254.216 509.339 254.216 509.477C254.224 509.524 254.218 509.573 254.198 509.617C254.178 509.661 254.147 509.698 254.106 509.724C254.056 509.751 253.998 509.761 253.941 509.751ZM251.125 504.943H250.946C250.438 504.943 250.411 505.204 250.397 505.273C250.259 506.07 252.155 508.089 253.598 508.955C253.487 507.609 252.959 506.331 252.087 505.3C251.824 505.061 251.48 504.933 251.125 504.943Z" fill="#072AC8"/>
<path d="M272.626 129.691L270.524 128.537C270.524 128.537 271.28 130.542 272.626 129.691Z" fill="#263238"/>
<path d="M295.033 240.079L296.256 244.379C296.421 244.723 296.036 245.066 295.473 245.066H245.918C245.492 245.066 245.135 244.846 245.108 244.571L244.668 240.271C244.668 239.969 245.011 239.722 245.492 239.722H294.195C294.354 239.698 294.517 239.718 294.665 239.781C294.813 239.844 294.94 239.947 295.033 240.079Z" fill="#072AC8"/>
<path opacity="0.2" d="M295.033 240.079L296.256 244.379C296.421 244.723 296.036 245.066 295.473 245.066H245.918C245.492 245.066 245.135 244.846 245.108 244.571L244.668 240.271C244.668 239.969 245.011 239.722 245.492 239.722H294.195C294.354 239.698 294.517 239.718 294.665 239.781C294.813 239.844 294.94 239.947 295.033 240.079Z" fill="black"/>
<path d="M288.329 245.52H289.634C289.895 245.52 290.088 245.396 290.074 245.231L289.456 239.639C289.456 239.475 289.208 239.337 288.961 239.337H287.587C287.326 239.337 287.12 239.475 287.147 239.639L287.752 245.231C287.834 245.396 288.068 245.52 288.329 245.52Z" fill="#072AC8"/>
<path opacity="0.4" d="M288.329 245.52H289.634C289.895 245.52 290.088 245.396 290.074 245.231L289.456 239.639C289.456 239.475 289.208 239.337 288.961 239.337H287.587C287.326 239.337 287.12 239.475 287.147 239.639L287.752 245.231C287.834 245.396 288.068 245.52 288.329 245.52Z" fill="white"/>
<path d="M249.642 245.52H250.947C251.208 245.52 251.4 245.396 251.386 245.231L250.782 239.639C250.782 239.475 250.535 239.337 250.274 239.337H248.968C248.707 239.337 248.515 239.475 248.529 239.639L249.133 245.231C249.161 245.396 249.381 245.52 249.642 245.52Z" fill="#072AC8"/>
<path opacity="0.4" d="M249.642 245.52H250.947C251.208 245.52 251.4 245.396 251.386 245.231L250.782 239.639C250.782 239.475 250.535 239.337 250.274 239.337H248.968C248.707 239.337 248.515 239.475 248.529 239.639L249.133 245.231C249.161 245.396 249.381 245.52 249.642 245.52Z" fill="white"/>
<path d="M268.903 245.52H270.277C270.538 245.52 270.73 245.396 270.717 245.231L270.112 239.639C270.112 239.475 269.865 239.337 269.604 239.337H268.299C268.038 239.337 267.845 239.475 267.859 239.639L268.464 245.231C268.422 245.396 268.642 245.52 268.903 245.52Z" fill="#072AC8"/>
<path opacity="0.4" d="M268.903 245.52H270.277C270.538 245.52 270.73 245.396 270.717 245.231L270.112 239.639C270.112 239.475 269.865 239.337 269.604 239.337H268.299C268.038 239.337 267.845 239.475 267.859 239.639L268.464 245.231C268.422 245.396 268.642 245.52 268.903 245.52Z" fill="white"/>
<path d="M265.413 252.499L253.735 247.278L257.06 258.86C257.06 258.86 264.479 260.536 267.707 256.813L265.413 252.499Z" fill="#FFB573"/>
<path d="M308.442 185.359C308.978 189.412 309.404 193.492 309.884 197.545L311.121 209.772C311.56 213.894 311.89 217.919 312.275 222L312.783 228.113L312.921 229.652C312.921 229.803 312.921 230.435 312.921 230.875C312.921 231.314 312.921 231.823 312.921 232.249C312.716 233.995 312.16 235.682 311.286 237.208C309.871 239.559 308.003 241.604 305.79 243.226C303.935 244.625 301.968 245.87 299.91 246.949C296.062 248.937 292.06 250.614 287.944 251.963C283.919 253.337 279.88 254.477 275.827 255.494C271.774 256.511 267.721 257.349 263.531 257.994L262.157 252.156C265.935 250.905 269.796 249.628 273.546 248.185C277.297 246.743 281.047 245.328 284.647 243.693C288.19 242.142 291.623 240.352 294.923 238.335C296.445 237.416 297.888 236.373 299.237 235.216C300.295 234.359 301.177 233.304 301.834 232.111C301.977 231.85 302.052 231.557 302.053 231.259C302.053 231.259 302.053 231.259 302.053 231.149C302.053 231.04 302.053 231.149 302.053 230.847L301.834 229.336L300.954 223.25C300.419 219.128 299.814 215.13 299.32 211.064L297.767 198.878C297.327 194.756 296.819 190.745 296.393 186.664L308.442 185.359Z" fill="#FFB573"/>
<path d="M302.837 171.098C307.645 172.555 313.443 189.151 313.443 189.151L296.586 206.502C296.586 206.502 287.93 188.642 289.95 182.432C292.066 175.948 297.341 169.422 302.837 171.098Z" fill="#072AC8"/>
<path d="M244.077 249.682L247.375 259.217L257.06 258.86L253.736 247.278L244.077 249.682Z" fill="#FFB573"/>
<path d="M407.153 215.487C410.313 192.901 394.541 174.588 371.955 174.588H536.981C559.581 174.588 575.339 192.901 572.193 215.487H407.153Z" fill="#263238"/>
<path opacity="0.7" d="M407.153 215.487C410.313 192.901 394.541 174.588 371.955 174.588H536.981C559.581 174.588 575.339 192.901 572.193 215.487H407.153Z" fill="#072AC8"/>
<path d="M371.955 174.588H536.981C514.395 174.588 493.527 192.901 490.381 215.487L453.067 483.167C449.921 505.767 429.052 524.08 406.466 524.08H323.239C300.652 524.08 284.894 505.767 288.041 483.167L325.34 215.487C328.5 192.901 349.355 174.588 371.955 174.588Z" fill="#072AC8"/>
<path d="M371.254 483.167C368.108 505.767 383.866 524.08 406.466 524.08H241.426C218.84 524.08 203.082 505.767 206.228 483.167H371.254Z" fill="#263238"/>
<path opacity="0.7" d="M371.254 483.167C368.108 505.767 383.866 524.08 406.466 524.08H241.426C218.84 524.08 203.082 505.767 206.228 483.167H371.254Z" fill="#072AC8"/>
<path opacity="0.4" d="M397.715 257.857H461.612C462.543 257.813 463.431 257.455 464.133 256.841C464.834 256.227 465.306 255.394 465.473 254.477C465.546 254.056 465.525 253.624 465.411 253.212C465.298 252.8 465.095 252.418 464.816 252.094C464.538 251.77 464.191 251.511 463.801 251.336C463.411 251.162 462.988 251.075 462.56 251.084H398.663C397.725 251.113 396.827 251.468 396.123 252.087C395.419 252.706 394.952 253.551 394.802 254.477C394.729 254.897 394.75 255.329 394.863 255.74C394.977 256.152 395.18 256.533 395.459 256.856C395.737 257.179 396.084 257.437 396.474 257.61C396.864 257.783 397.288 257.867 397.715 257.857Z" fill="white"/>
<path opacity="0.4" d="M395.956 270.454H442.928C443.864 270.426 444.76 270.073 445.464 269.456C446.168 268.84 446.636 267.998 446.789 267.075C446.862 266.654 446.841 266.223 446.728 265.812C446.614 265.4 446.411 265.019 446.132 264.696C445.853 264.373 445.507 264.115 445.116 263.942C444.726 263.769 444.303 263.685 443.876 263.695H396.904C395.968 263.721 395.071 264.073 394.366 264.69C393.661 265.307 393.194 266.15 393.044 267.075C392.971 267.495 392.991 267.927 393.105 268.338C393.219 268.749 393.422 269.13 393.701 269.454C393.979 269.777 394.326 270.034 394.716 270.207C395.106 270.38 395.53 270.465 395.956 270.454Z" fill="white"/>
<path opacity="0.4" d="M369.461 272.446C378.299 264.201 379.649 251.284 372.475 243.594C365.302 235.904 352.322 236.354 343.483 244.599C334.645 252.843 333.295 265.761 340.469 273.451C347.642 281.141 360.622 280.691 369.461 272.446Z" fill="white"/>
<path d="M338.255 258.599C337.813 261.529 338.154 264.525 339.244 267.281C340.429 270.181 342.473 272.649 345.1 274.356C347.727 276.062 350.813 276.925 353.944 276.83C357.39 276.748 360.766 275.837 363.786 274.175C366.807 272.513 369.382 270.149 371.296 267.281C373.086 264.689 374.252 261.717 374.703 258.599C376.077 248.542 369.084 240.381 359.013 240.381C353.974 240.526 349.142 242.425 345.352 245.75C341.563 249.076 339.052 253.62 338.255 258.599Z" fill="white"/>
<path opacity="0.4" d="M343.214 265.468C344.123 267.691 345.688 269.583 347.702 270.891C349.715 272.2 352.08 272.863 354.48 272.79C357.126 272.729 359.718 272.032 362.038 270.757C364.357 269.483 366.336 267.668 367.806 265.468C364.382 262.996 360.255 261.691 356.032 261.745C351.499 261.783 347.063 263.071 343.214 265.468Z" fill="#263238"/>
<path opacity="0.4" d="M350.867 254.065C350.728 254.841 350.763 255.638 350.971 256.399C351.179 257.16 351.554 257.864 352.068 258.462C352.583 259.059 353.224 259.534 353.946 259.853C354.667 260.171 355.451 260.325 356.239 260.302C357.962 260.252 359.615 259.602 360.909 258.463C362.204 257.324 363.059 255.768 363.328 254.065C363.467 253.29 363.432 252.495 363.225 251.736C363.018 250.977 362.644 250.274 362.13 249.677C361.617 249.081 360.977 248.607 360.258 248.289C359.538 247.972 358.756 247.819 357.97 247.841C356.247 247.89 354.594 248.538 353.298 249.674C352.001 250.81 351.141 252.363 350.867 254.065Z" fill="#263238"/>
<path opacity="0.4" d="M390.048 312.907H411.604C412.539 312.878 413.436 312.525 414.14 311.909C414.844 311.292 415.312 310.45 415.464 309.527C415.538 309.107 415.517 308.675 415.403 308.264C415.29 307.852 415.086 307.471 414.808 307.148C414.529 306.825 414.182 306.567 413.792 306.394C413.402 306.221 412.978 306.137 412.552 306.147H390.982C390.048 306.174 389.152 306.527 388.45 307.144C387.747 307.761 387.283 308.604 387.136 309.527C387.062 309.947 387.083 310.379 387.197 310.79C387.31 311.202 387.514 311.583 387.792 311.906C388.071 312.229 388.418 312.487 388.808 312.66C389.198 312.833 389.622 312.917 390.048 312.907Z" fill="white"/>
<path opacity="0.4" d="M424.614 312.907H455.416C456.351 312.878 457.247 312.525 457.952 311.908C458.656 311.292 459.124 310.45 459.276 309.527C459.352 309.106 459.333 308.674 459.22 308.261C459.108 307.849 458.905 307.467 458.626 307.143C458.346 306.819 457.999 306.561 457.607 306.389C457.216 306.217 456.791 306.134 456.364 306.147H425.562C424.626 306.173 423.728 306.525 423.024 307.142C422.319 307.759 421.851 308.602 421.702 309.527C421.628 309.947 421.649 310.379 421.763 310.79C421.876 311.201 422.08 311.582 422.358 311.906C422.637 312.229 422.984 312.486 423.374 312.659C423.764 312.833 424.187 312.917 424.614 312.907Z" fill="white"/>
<path opacity="0.4" d="M388.29 325.519H441.087C442.024 325.489 442.922 325.134 443.626 324.515C444.331 323.896 444.798 323.051 444.947 322.125C445.021 321.705 445 321.273 444.886 320.862C444.773 320.451 444.569 320.07 444.291 319.746C444.012 319.423 443.665 319.166 443.275 318.993C442.885 318.819 442.461 318.735 442.035 318.745H389.224C388.291 318.778 387.398 319.132 386.697 319.748C385.995 320.364 385.529 321.204 385.377 322.125C385.302 322.547 385.321 322.98 385.433 323.393C385.546 323.806 385.749 324.189 386.028 324.513C386.307 324.838 386.654 325.097 387.046 325.271C387.437 325.445 387.862 325.529 388.29 325.519Z" fill="white"/>
<path opacity="0.4" d="M361.794 327.502C370.632 319.257 371.982 306.339 364.808 298.65C357.635 290.96 344.655 291.409 335.816 299.654C326.978 307.899 325.628 320.817 332.802 328.507C339.975 336.197 352.955 335.747 361.794 327.502Z" fill="white"/>
<path d="M330.575 313.552C330.137 316.484 330.483 319.48 331.578 322.235C332.753 325.131 334.783 327.601 337.397 329.314C340.011 331.027 343.085 331.903 346.209 331.825C349.656 331.745 353.033 330.836 356.053 329.173C359.074 327.511 361.649 325.145 363.561 322.276C365.363 319.689 366.535 316.715 366.982 313.594C368.356 303.537 361.363 295.376 351.293 295.376C346.266 295.529 341.449 297.426 337.668 300.742C333.888 304.059 331.38 308.588 330.575 313.552Z" fill="white"/>
<path opacity="0.4" d="M335.534 320.559C336.445 322.782 338.013 324.675 340.029 325.984C342.044 327.292 344.411 327.954 346.813 327.881C349.457 327.818 352.047 327.119 354.364 325.845C356.681 324.571 358.657 322.757 360.126 320.559C356.703 318.085 352.575 316.78 348.352 316.836C343.819 316.878 339.385 318.166 335.534 320.559Z" fill="#263238"/>
<path opacity="0.4" d="M343.2 309.114C343.061 309.889 343.097 310.686 343.304 311.445C343.511 312.205 343.885 312.909 344.398 313.506C344.911 314.103 345.55 314.579 346.27 314.898C346.99 315.217 347.771 315.372 348.558 315.352C350.284 315.303 351.938 314.653 353.235 313.514C354.531 312.375 355.39 310.819 355.661 309.114C355.801 308.34 355.765 307.544 355.558 306.785C355.351 306.026 354.977 305.323 354.464 304.727C353.951 304.131 353.311 303.657 352.591 303.339C351.871 303.021 351.09 302.868 350.303 302.891C348.58 302.939 346.928 303.587 345.631 304.723C344.334 305.86 343.475 307.412 343.2 309.114Z" fill="#263238"/>
<path opacity="0.4" d="M382.369 367.97H419.916C420.853 367.941 421.751 367.586 422.456 366.967C423.16 366.348 423.627 365.503 423.776 364.577C423.85 364.156 423.829 363.725 423.715 363.314C423.602 362.902 423.398 362.521 423.12 362.198C422.841 361.875 422.494 361.617 422.104 361.444C421.714 361.271 421.29 361.187 420.864 361.197H383.303C382.367 361.226 381.471 361.579 380.767 362.195C380.063 362.812 379.595 363.653 379.442 364.577C379.366 364.999 379.386 365.433 379.499 365.848C379.613 366.262 379.817 366.645 380.097 366.97C380.378 367.296 380.727 367.554 381.12 367.727C381.513 367.9 381.939 367.983 382.369 367.97Z" fill="white"/>
<path opacity="0.4" d="M380.555 380.568H439.095C440.027 380.524 440.917 380.164 441.619 379.547C442.32 378.931 442.791 378.094 442.955 377.175C443.026 376.754 443.003 376.322 442.888 375.911C442.772 375.499 442.568 375.119 442.288 374.796C442.008 374.473 441.661 374.216 441.27 374.043C440.88 373.87 440.456 373.785 440.029 373.795H381.503C380.568 373.824 379.671 374.177 378.967 374.793C378.263 375.41 377.795 376.251 377.642 377.175C377.567 377.596 377.586 378.029 377.699 378.442C377.811 378.855 378.014 379.238 378.293 379.563C378.572 379.888 378.919 380.147 379.311 380.321C379.702 380.494 380.127 380.579 380.555 380.568Z" fill="white"/>
<path opacity="0.2" d="M316.521 434.203H406.15C407.464 434.16 408.721 433.663 409.708 432.796C410.695 431.929 411.351 430.746 411.563 429.45C411.668 428.857 411.639 428.248 411.478 427.668C411.318 427.087 411.029 426.551 410.634 426.096C410.239 425.642 409.747 425.281 409.195 425.042C408.643 424.802 408.044 424.688 407.442 424.71H317.84C316.529 424.748 315.272 425.242 314.286 426.107C313.301 426.973 312.648 428.155 312.44 429.45C312.334 430.04 312.361 430.647 312.518 431.226C312.676 431.805 312.96 432.341 313.351 432.796C313.741 433.252 314.229 433.614 314.777 433.857C315.325 434.101 315.921 434.219 316.521 434.203Z" fill="white"/>
<path opacity="0.2" d="M314.061 451.871H379.923C381.236 451.83 382.493 451.333 383.478 450.466C384.463 449.598 385.116 448.414 385.323 447.118C385.428 446.525 385.398 445.916 385.238 445.336C385.077 444.755 384.788 444.218 384.393 443.764C383.998 443.31 383.506 442.949 382.954 442.71C382.402 442.47 381.803 442.356 381.201 442.378H315.38C314.068 442.418 312.811 442.913 311.824 443.777C310.836 444.642 310.18 445.823 309.967 447.118C309.876 447.707 309.913 448.309 310.077 448.883C310.241 449.456 310.528 449.987 310.917 450.439C311.306 450.891 311.789 451.253 312.332 451.501C312.875 451.748 313.465 451.874 314.061 451.871Z" fill="white"/>
<path opacity="0.2" d="M347.679 217.946H454.55C455.222 217.916 455.862 217.655 456.363 217.207C456.864 216.758 457.194 216.151 457.298 215.487C457.351 215.182 457.336 214.869 457.253 214.571C457.17 214.273 457.022 213.997 456.82 213.763C456.617 213.529 456.365 213.342 456.082 213.218C455.799 213.093 455.492 213.033 455.182 213.041H348.366C347.698 213.076 347.062 213.337 346.562 213.781C346.063 214.226 345.73 214.828 345.618 215.487C345.566 215.788 345.58 216.096 345.66 216.391C345.739 216.686 345.882 216.96 346.078 217.194C346.274 217.428 346.519 217.617 346.796 217.747C347.072 217.876 347.373 217.945 347.679 217.946Z" fill="white"/>
<path opacity="0.4" d="M354.121 382.557C362.96 374.312 364.309 361.395 357.136 353.705C349.963 346.015 336.982 346.465 328.144 354.709C319.306 362.954 317.956 375.872 325.129 383.562C332.303 391.252 345.283 390.802 354.121 382.557Z" fill="white"/>
<path d="M322.854 368.657C322.413 371.588 322.754 374.583 323.843 377.34C325.032 380.236 327.077 382.7 329.703 384.404C332.33 386.107 335.414 386.969 338.543 386.874C341.988 386.793 345.363 385.884 348.383 384.225C351.403 382.565 353.979 380.204 355.895 377.34C357.683 374.746 358.849 371.775 359.302 368.657C360.676 358.587 353.683 350.426 343.613 350.426C338.571 350.571 333.738 352.472 329.948 355.8C326.158 359.129 323.649 363.676 322.854 368.657Z" fill="white"/>
<path opacity="0.4" d="M327.869 375.622C328.78 377.846 330.348 379.739 332.363 381.047C334.379 382.356 336.746 383.018 339.148 382.945C341.792 382.882 344.381 382.183 346.698 380.909C349.015 379.634 350.991 377.821 352.46 375.622C349.04 373.145 344.91 371.839 340.687 371.899C336.152 371.931 331.715 373.22 327.869 375.622Z" fill="#263238"/>
<path opacity="0.4" d="M335.52 364.178C335.383 364.953 335.421 365.749 335.63 366.508C335.838 367.267 336.214 367.97 336.728 368.566C337.242 369.162 337.883 369.635 338.603 369.953C339.323 370.271 340.105 370.424 340.892 370.402C342.614 370.353 344.264 369.704 345.559 368.568C346.853 367.432 347.71 365.879 347.981 364.178C348.12 363.403 348.085 362.607 347.878 361.847C347.671 361.088 347.297 360.384 346.784 359.787C346.271 359.189 345.631 358.714 344.912 358.395C344.192 358.075 343.41 357.92 342.623 357.941C340.898 357.99 339.244 358.64 337.947 359.779C336.65 360.918 335.792 362.474 335.52 364.178Z" fill="#263238"/>
</svg>
